<svg width="89" height="92" viewBox="0 0 89 92" fill="none" xmlns="http://www.w3.org/2000/svg">
<g id="Frame 8">
<g id="Group 2">
<path id="Vector" d="M40.7029 45.1365C41.5332 45.6125 42.571 45.0176 42.571 44.0659V1.23817C42.571 0.286442 41.5332 -0.308392 40.7029 0.167466L3.33663 21.5814C2.50628 22.0572 2.50627 23.2468 3.33663 23.7227L40.7029 45.1365Z" fill="#6B35E9"/>
<path id="Vector_2" d="M45.5903 1.08439C45.5903 0.250864 46.5007 -0.270093 47.2284 0.146667L84.902 21.7143C85.6297 22.131 85.6297 23.173 84.902 23.5898L47.2284 45.1574C46.5007 45.574 45.5903 45.0531 45.5903 44.2197V1.08439Z" fill="#BCA3F5"/>
<path id="Vector_3" d="M0 27.0411C0 26.1085 1.01883 25.5255 1.83387 25.9918L56.8498 57.4667C57.665 57.9332 57.665 59.0988 56.8498 59.565L1.83387 91.0403C1.01883 91.5064 0 90.9234 0 89.9911V27.0411Z" fill="#5318DC"/>
<path id="Vector_4" d="M86.4848 71.1154C87.5015 71.6972 88.773 70.97 88.773 69.8061V27.2641C88.773 26.1002 87.5015 25.3728 86.4848 25.9548L49.304 47.2259C48.287 47.8077 48.287 49.2625 49.304 49.8443L86.4848 71.1154Z" fill="#875AED"/>
</g>
</g>
</svg>
